<svg width="39" height="26" viewBox="0 0 39 26" fill="none" xmlns="http://www.w3.org/2000/svg">
<path d="M31.8361 13H25.4688C25.4688 3.02449 33.9585 0.176871 38.2034 0V6.36735C33.1096 6.36735 31.8361 10.7891 31.8361 13Z" fill="#116B11"/>
<path d="M31.8358 13H38.2031C38.2031 22.9755 29.7133 25.8231 25.4684 26V19.6327C30.5623 19.6327 31.8358 15.2109 31.8358 13Z" fill="#116B11"/>
<path d="M19.1017 13H12.7344C12.7344 3.02449 21.2242 0.176871 25.4691 0V6.36735C20.3752 6.36735 19.1017 10.7891 19.1017 13Z" fill="#47A747"/>
<path d="M19.1024 13H25.4697C25.4697 22.9755 16.9799 25.8231 12.735 26V19.6327C17.8289 19.6327 19.1024 15.2109 19.1024 13Z" fill="#47A747"/>
<path d="M6.36735 13H0C0 3.02449 8.4898 0.176871 12.7347 0V6.36735C7.64082 6.36735 6.36735 10.7891 6.36735 13Z" fill="#89CD89"/>
<path d="M6.368 13H12.7354C12.7354 22.9755 4.24555 25.8231 0.000656128 26V19.6327C5.09453 19.6327 6.368 15.2109 6.368 13Z" fill="#89CD89"/>
</svg>