<svg width="189" height="26" viewBox="0 0 189 26" fill="none" xmlns="http://www.w3.org/2000/svg">
<path d="M31.8361 13H25.4688C25.4688 3.02449 33.9585 0.176871 38.2034 0V6.36735C33.1096 6.36735 31.8361 10.7891 31.8361 13Z" fill="#116B11"/>
<path d="M31.8358 13H38.2031C38.2031 22.9755 29.7133 25.8231 25.4684 26V19.6327C30.5623 19.6327 31.8358 15.2109 31.8358 13Z" fill="#116B11"/>
<path d="M19.1017 13H12.7344C12.7344 3.02449 21.2242 0.176871 25.4691 0V6.36735C20.3752 6.36735 19.1017 10.7891 19.1017 13Z" fill="#47A747"/>
<path d="M19.1024 13H25.4697C25.4697 22.9755 16.9799 25.8231 12.735 26V19.6327C17.8289 19.6327 19.1024 15.2109 19.1024 13Z" fill="#47A747"/>
<path d="M6.36735 13H0C0 3.02449 8.4898 0.176871 12.7347 0V6.36735C7.64082 6.36735 6.36735 10.7891 6.36735 13Z" fill="#89CD89"/>
<path d="M6.368 13H12.7354C12.7354 22.9755 4.24555 25.8231 0.000656128 26V19.6327C5.09453 19.6327 6.368 15.2109 6.368 13Z" fill="#89CD89"/>
<path d="M60.285 24.39C59.135 24.39 58.03 24.21 56.97 23.85C55.91 23.49 54.985 22.975 54.195 22.305C53.405 21.625 52.84 20.82 52.5 19.89L55.425 18.795C55.595 19.275 55.92 19.705 56.4 20.085C56.89 20.455 57.47 20.745 58.14 20.955C58.82 21.165 59.535 21.27 60.285 21.27C61.085 21.27 61.835 21.14 62.535 20.88C63.245 20.62 63.815 20.26 64.245 19.8C64.685 19.34 64.905 18.8 64.905 18.18C64.905 17.54 64.675 17.015 64.215 16.605C63.765 16.195 63.185 15.87 62.475 15.63C61.775 15.39 61.045 15.21 60.285 15.09C58.815 14.85 57.495 14.5 56.325 14.04C55.165 13.58 54.245 12.935 53.565 12.105C52.895 11.275 52.56 10.195 52.56 8.865C52.56 7.615 52.915 6.525 53.625 5.595C54.345 4.665 55.29 3.945 56.46 3.435C57.64 2.915 58.915 2.655 60.285 2.655C61.415 2.655 62.505 2.835 63.555 3.195C64.615 3.545 65.545 4.06 66.345 4.74C67.155 5.41 67.735 6.225 68.085 7.185L65.13 8.25C64.96 7.76 64.635 7.335 64.155 6.975C63.675 6.605 63.095 6.315 62.415 6.105C61.745 5.895 61.035 5.79 60.285 5.79C59.485 5.78 58.735 5.91 58.035 6.18C57.345 6.44 56.78 6.8 56.34 7.26C55.9 7.72 55.68 8.255 55.68 8.865C55.68 9.615 55.885 10.185 56.295 10.575C56.705 10.965 57.255 11.255 57.945 11.445C58.645 11.625 59.425 11.79 60.285 11.94C61.665 12.16 62.94 12.525 64.11 13.035C65.29 13.545 66.235 14.225 66.945 15.075C67.665 15.915 68.025 16.95 68.025 18.18C68.025 19.42 67.665 20.51 66.945 21.45C66.235 22.38 65.29 23.105 64.11 23.625C62.94 24.135 61.665 24.39 60.285 24.39ZM80.7884 19.74L83.5784 21.255C82.8984 22.205 82.0334 22.965 80.9834 23.535C79.9434 24.105 78.8134 24.39 77.5934 24.39C76.2134 24.39 74.9534 24.035 73.8134 23.325C72.6834 22.615 71.7784 21.665 71.0984 20.475C70.4284 19.275 70.0934 17.95 70.0934 16.5C70.0934 15.4 70.2884 14.375 70.6784 13.425C71.0684 12.465 71.6034 11.625 72.2834 10.905C72.9734 10.175 73.7734 9.605 74.6834 9.195C75.5934 8.785 76.5634 8.58 77.5934 8.58C78.8134 8.58 79.9434 8.865 80.9834 9.435C82.0334 10.005 82.8984 10.77 83.5784 11.73L80.7884 13.245C80.3684 12.745 79.8784 12.365 79.3184 12.105C78.7584 11.835 78.1834 11.7 77.5934 11.7C76.7734 11.7 76.0284 11.925 75.3584 12.375C74.6984 12.815 74.1734 13.4 73.7834 14.13C73.4034 14.85 73.2134 15.64 73.2134 16.5C73.2134 17.35 73.4084 18.14 73.7984 18.87C74.1884 19.59 74.7134 20.17 75.3734 20.61C76.0434 21.05 76.7834 21.27 77.5934 21.27C78.2134 21.27 78.8034 21.13 79.3634 20.85C79.9234 20.57 80.3984 20.2 80.7884 19.74ZM99.4055 14.595V24H96.2855V15.36C96.2855 14.69 96.1205 14.08 95.7905 13.53C95.4705 12.98 95.0355 12.545 94.4855 12.225C93.9455 11.895 93.3355 11.73 92.6555 11.73C91.9955 11.73 91.3905 11.895 90.8405 12.225C90.2905 12.545 89.8505 12.98 89.5205 13.53C89.1905 14.08 89.0255 14.69 89.0255 15.36V24H85.9055V1.5H89.0255V10.59C89.5455 9.97 90.1855 9.48 90.9455 9.12C91.7055 8.76 92.5255 8.58 93.4055 8.58C94.5155 8.58 95.5255 8.85 96.4355 9.39C97.3455 9.93 98.0655 10.655 98.5955 11.565C99.1355 12.475 99.4055 13.485 99.4055 14.595ZM108.707 24.39C107.327 24.39 106.067 24.035 104.927 23.325C103.797 22.615 102.892 21.665 102.212 20.475C101.542 19.275 101.207 17.95 101.207 16.5C101.207 15.4 101.402 14.375 101.792 13.425C102.182 12.465 102.717 11.625 103.397 10.905C104.087 10.175 104.887 9.605 105.797 9.195C106.707 8.785 107.677 8.58 108.707 8.58C110.087 8.58 111.342 8.935 112.472 9.645C113.612 10.355 114.517 11.31 115.187 12.51C115.867 13.71 116.207 15.04 116.207 16.5C116.207 17.59 116.012 18.61 115.622 19.56C115.232 20.51 114.692 21.35 114.002 22.08C113.322 22.8 112.527 23.365 111.617 23.775C110.717 24.185 109.747 24.39 108.707 24.39ZM108.707 21.27C109.537 21.27 110.282 21.05 110.942 20.61C111.602 20.17 112.122 19.59 112.502 18.87C112.892 18.14 113.087 17.35 113.087 16.5C113.087 15.63 112.887 14.83 112.487 14.1C112.097 13.37 111.572 12.79 110.912 12.36C110.252 11.92 109.517 11.7 108.707 11.7C107.887 11.7 107.142 11.92 106.472 12.36C105.812 12.8 105.287 13.385 104.897 14.115C104.517 14.845 104.327 15.64 104.327 16.5C104.327 17.39 104.527 18.195 104.927 18.915C105.327 19.635 105.857 20.21 106.517 20.64C107.187 21.06 107.917 21.27 108.707 21.27ZM125.201 24.39C123.821 24.39 122.561 24.035 121.421 23.325C120.291 22.615 119.386 21.665 118.706 20.475C118.036 19.275 117.701 17.95 117.701 16.5C117.701 15.4 117.896 14.375 118.286 13.425C118.676 12.465 119.211 11.625 119.891 10.905C120.581 10.175 121.381 9.605 122.291 9.195C123.201 8.785 124.171 8.58 125.201 8.58C126.581 8.58 127.836 8.935 128.966 9.645C130.106 10.355 131.011 11.31 131.681 12.51C132.361 13.71 132.701 15.04 132.701 16.5C132.701 17.59 132.506 18.61 132.116 19.56C131.726 20.51 131.186 21.35 130.496 22.08C129.816 22.8 129.021 23.365 128.111 23.775C127.211 24.185 126.241 24.39 125.201 24.39ZM125.201 21.27C126.031 21.27 126.776 21.05 127.436 20.61C128.096 20.17 128.616 19.59 128.996 18.87C129.386 18.14 129.581 17.35 129.581 16.5C129.581 15.63 129.381 14.83 128.981 14.1C128.591 13.37 128.066 12.79 127.406 12.36C126.746 11.92 126.011 11.7 125.201 11.7C124.381 11.7 123.636 11.92 122.966 12.36C122.306 12.8 121.781 13.385 121.391 14.115C121.011 14.845 120.821 15.64 120.821 16.5C120.821 17.39 121.021 18.195 121.421 18.915C121.821 19.635 122.351 20.21 123.011 20.64C123.681 21.06 124.411 21.27 125.201 21.27ZM134.919 24V1.5H138.039V24H134.919ZM141.628 24V3H154.663V6.12H144.748V11.19H152.728V14.31H144.748V20.88H154.663V24H141.628ZM156.526 24L162.016 16.47L156.556 8.97H160.411L163.936 13.8L167.476 8.97H171.316L165.871 16.47L171.361 24H167.506L163.936 19.11L160.381 24H156.526ZM184.646 9H187.766V24H184.631L184.511 21.825C184.071 22.595 183.476 23.215 182.726 23.685C181.976 24.155 181.091 24.39 180.071 24.39C178.971 24.39 177.936 24.185 176.966 23.775C175.996 23.355 175.141 22.775 174.401 22.035C173.671 21.295 173.101 20.445 172.691 19.485C172.281 18.515 172.076 17.475 172.076 16.365C172.076 15.295 172.276 14.29 172.676 13.35C173.076 12.4 173.631 11.57 174.341 10.86C175.051 10.15 175.871 9.595 176.801 9.195C177.741 8.785 178.746 8.58 179.816 8.58C180.906 8.58 181.866 8.83 182.696 9.33C183.536 9.82 184.231 10.45 184.781 11.22L184.646 9ZM179.996 21.375C180.876 21.375 181.646 21.16 182.306 20.73C182.966 20.29 183.476 19.7 183.836 18.96C184.206 18.22 184.391 17.4 184.391 16.5C184.391 15.59 184.206 14.765 183.836 14.025C183.466 13.285 182.951 12.7 182.291 12.27C181.641 11.83 180.876 11.61 179.996 11.61C179.126 11.61 178.331 11.83 177.611 12.27C176.891 12.71 176.321 13.3 175.901 14.04C175.481 14.78 175.271 15.6 175.271 16.5C175.271 17.41 175.486 18.235 175.916 18.975C176.356 19.705 176.931 20.29 177.641 20.73C178.361 21.16 179.146 21.375 179.996 21.375Z" fill="black"/>
</svg>
